<svg width="19" height="19" viewBox="0 0 19 19" fill="none" xmlns="http://www.w3.org/2000/svg">
<path style="fill:#FFFFFF" fill-rule="evenodd" clip-rule="evenodd" d="M15.7961 8.10161L10.4557 12.257C9.88689 12.7073 9.08109 12.7073 8.51229 12.2649L3.17189 8.10951C2.76899 7.79351 2.76899 7.17731 3.17189 6.86131L8.51229 2.69801C9.08899 2.25561 9.88689 2.25561 10.4557 2.69801L15.7961 6.85341C16.199 7.16941 16.199 7.78561 15.7961 8.10161ZM8.98629 14.6428C9.27069 14.864 9.67359 14.864 9.95799 14.6428L14.8165 10.8587C15.0997 10.6375 15.4971 10.6375 15.7803 10.8587L15.7882 10.8666C16.1911 11.1826 16.1911 11.7909 15.7882 12.1069L10.4478 16.2623C9.87109 16.7047 9.07319 16.7047 8.50439 16.2623L3.16399 12.1069C2.76109 11.7909 2.76109 11.1826 3.16399 10.8666C3.44719 10.6454 3.8446 10.6454 4.12779 10.8666L8.98629 14.6428Z" fill="#66788A"/>
</svg>
