<svg width="59" height="59" viewBox="0 0 59 59" fill="none" xmlns="http://www.w3.org/2000/svg">
<path d="M45.5417 42.3369L32.7083 29.5036V19.3011C37.0396 17.729 39.9592 13.2373 38.9004 8.20025C38.0983 4.41442 34.9542 1.39859 31.1362 0.75692C25.1046 -0.237664 19.875 4.38234 19.875 10.2536C19.875 14.4244 22.57 17.9536 26.2917 19.3011V29.5036L13.4583 42.3369H3.83333C2.06875 42.3369 0.625 43.7807 0.625 45.5453V55.1703C0.625 56.9348 2.06875 58.3786 3.83333 58.3786H13.4583C15.2229 58.3786 16.6667 56.9348 16.6667 55.1703V48.5932L29.5 35.1182L42.3333 48.5932V55.1703C42.3333 56.9348 43.7771 58.3786 45.5417 58.3786H55.1667C56.9312 58.3786 58.375 56.9348 58.375 55.1703V45.5453C58.375 43.7807 56.9312 42.3369 55.1667 42.3369H45.5417Z" fill="#00709F"/>
</svg>
