<svg width="57" height="37" viewBox="0 0 57 37" fill="none" xmlns="http://www.w3.org/2000/svg">
<path fill-rule="evenodd" clip-rule="evenodd" d="M25.9327 8.33301C25.9327 12.5522 22.5523 15.958 18.3331 15.958C14.1139 15.958 10.7081 12.5522 10.7081 8.33301C10.7081 4.11384 14.1139 0.708008 18.3331 0.708008C22.5523 0.708008 25.9327 4.11384 25.9327 8.33301ZM46.266 8.33301C46.266 12.5522 42.8856 15.958 38.6665 15.958C34.4473 15.958 31.0415 12.5522 31.0415 8.33301C31.0415 4.11384 34.4473 0.708008 38.6665 0.708008C42.8856 0.708008 46.266 4.11384 46.266 8.33301ZM18.3332 21.0412C12.4111 21.0412 0.541504 24.015 0.541504 29.9371V33.7496C0.541504 35.1475 1.68525 36.2912 3.08317 36.2912H33.5832C34.9811 36.2912 36.1248 35.1475 36.1248 33.7496V29.9371C36.1248 24.015 24.2553 21.0412 18.3332 21.0412ZM36.201 21.1683C37.0906 21.0921 37.9294 21.0412 38.6665 21.0412C44.5885 21.0412 56.4581 24.015 56.4581 29.9371V33.7496C56.4581 35.1475 55.3144 36.2912 53.9165 36.2912H40.7506C41.0302 35.5033 41.2081 34.6391 41.2081 33.7496V29.9371C41.2081 26.2008 39.2002 23.3796 36.3027 21.27C36.295 21.2623 36.2873 21.2522 36.2789 21.2413C36.2596 21.2161 36.2365 21.186 36.201 21.1683Z" fill="#00709F"/>
</svg>
