<svg width="22" height="14" viewBox="0 0 22 14" fill="none" xmlns="http://www.w3.org/2000/svg">
<path fill-rule="evenodd" clip-rule="evenodd" d="M10.0742 3.3335C10.0742 4.85516 8.85501 6.0835 7.33334 6.0835C5.81167 6.0835 4.58334 4.85516 4.58334 3.3335C4.58334 1.81183 5.81167 0.583496 7.33334 0.583496C8.85501 0.583496 10.0742 1.81183 10.0742 3.3335ZM17.4075 3.3335C17.4075 4.85516 16.1883 6.0835 14.6667 6.0835C13.145 6.0835 11.9167 4.85516 11.9167 3.3335C11.9167 1.81183 13.145 0.583496 14.6667 0.583496C16.1883 0.583496 17.4075 1.81183 17.4075 3.3335ZM7.33334 7.91681C5.1975 7.91681 0.916672 8.98932 0.916672 11.1251V12.5001C0.916672 13.0043 1.32917 13.4168 1.83334 13.4168H12.8333C13.3375 13.4168 13.75 13.0043 13.75 12.5001V11.1251C13.75 8.98932 9.46917 7.91681 7.33334 7.91681ZM13.7775 7.96265C14.0983 7.93515 14.4008 7.91681 14.6667 7.91681C16.8025 7.91681 21.0833 8.98932 21.0833 11.1251V12.5001C21.0833 13.0043 20.6708 13.4168 20.1667 13.4168H15.4183C15.5192 13.1326 15.5833 12.821 15.5833 12.5001V11.1251C15.5833 9.77765 14.8592 8.76015 13.8142 7.99931C13.8114 7.99654 13.8086 7.99292 13.8056 7.98898C13.7986 7.97989 13.7903 7.96904 13.7775 7.96265Z" fill="#00709F"/>
</svg>
