<svg width="50" height="54" viewBox="0 0 50 54" fill="none" xmlns="http://www.w3.org/2000/svg">
<path fill-rule="evenodd" clip-rule="evenodd" d="M5.78512 0.75H44.2165C47.2361 0.75 49.7067 3.375 49.7067 6.58333V47.4167C49.7067 50.625 47.2361 53.25 44.2165 53.25H5.78512C2.73806 53.25 0.294922 50.625 0.294922 47.4167V6.58333C0.294922 3.375 2.73806 0.75 5.78512 0.75ZM27.7459 29.9167H35.9812C37.491 29.9167 38.7263 28.6042 38.7263 27C38.7263 25.3958 37.491 24.0833 35.9812 24.0833H27.7459V15.3333C27.7459 13.7292 26.5106 12.4167 25.0008 12.4167C23.491 12.4167 22.2557 13.7292 22.2557 15.3333V24.0833H14.0204C12.5106 24.0833 11.2753 25.3958 11.2753 27C11.2753 28.6042 12.5106 29.9167 14.0204 29.9167H22.2557V38.6667C22.2557 40.2708 23.491 41.5833 25.0008 41.5833C26.5106 41.5833 27.7459 40.2708 27.7459 38.6667V29.9167Z" fill="#949A9F"/>
</svg>
