<svg width="24" height="24" viewBox="0 0 24 24" fill="none" xmlns="http://www.w3.org/2000/svg">
<path style="fill:#00709F" fill-rule="evenodd" clip-rule="evenodd" d="M14.9725 12.0003L18.8725 15.9003C19.2625 16.2903 19.2625 16.9103 18.8725 17.3003C18.4825 17.6903 17.8625 17.6903 17.4725 17.3003L12.8825 12.7003C12.4925 12.3103 12.4925 11.6803 12.8825 11.2903L17.4725 6.70027C17.6574 6.51313 17.9095 6.40779 18.1725 6.40779C18.4356 6.40779 18.6877 6.51313 18.8725 6.70027C19.2625 7.09027 19.2625 7.71027 18.8725 8.10027L14.9725 12.0003ZM7.38261 12L11.2826 8.09998C11.4698 7.91513 11.5751 7.66303 11.5751 7.39998C11.5751 7.13693 11.4698 6.88484 11.2826 6.69998C10.8926 6.30998 10.2726 6.30998 9.88261 6.69998L5.2926 11.3C4.90261 11.69 4.90261 12.32 5.2926 12.71L9.8826 17.3C10.2726 17.69 10.8926 17.69 11.2826 17.3C11.4698 17.1151 11.5751 16.863 11.5751 16.6C11.5751 16.3369 11.4698 16.0848 11.2826 15.9L7.38261 12Z" fill="#6F8090"/>
</svg>
