<svg width="11" height="11" viewBox="0 0 11 11" fill="none" xmlns="http://www.w3.org/2000/svg">
<path fill-rule="evenodd" clip-rule="evenodd" d="M8.91611 0.360556C8.68389 0.128333 8.37222 0 8.04833 0H1.22222C0.543889 0 0 0.55 0 1.22222V9.77778C0 10.45 0.55 11 1.22222 11H9.77778C10.45 11 11 10.45 11 9.77778V2.95167C11 2.62778 10.8717 2.31611 10.6394 2.09L8.91611 0.360556ZM5.49999 9.77808C4.48555 9.77808 3.66666 8.95919 3.66666 7.94475C3.66666 6.9303 4.48555 6.11141 5.49999 6.11141C6.51444 6.11141 7.33333 6.9303 7.33333 7.94475C7.33333 8.95919 6.51444 9.77808 5.49999 9.77808ZM2.44441 3.66673H6.11108C6.7833 3.66673 7.3333 3.11673 7.3333 2.4445C7.3333 1.77228 6.7833 1.22228 6.11108 1.22228H2.44441C1.77219 1.22228 1.22219 1.77228 1.22219 2.4445C1.22219 3.11673 1.77219 3.66673 2.44441 3.66673Z" fill="#00993B"/>
</svg>
