<svg width="13" height="13" viewBox="0 0 13 13" fill="none" xmlns="http://www.w3.org/2000/svg">
<path fill-rule="evenodd" clip-rule="evenodd" d="M8.01117 1.78208L8.39575 2.16667H9.74992C10.0478 2.16667 10.2916 2.41042 10.2916 2.70833C10.2916 3.00625 10.0478 3.25 9.74992 3.25H3.24992C2.952 3.25 2.70825 3.00625 2.70825 2.70833C2.70825 2.41042 2.952 2.16667 3.24992 2.16667H4.60409L4.98867 1.78208C5.08617 1.68458 5.227 1.625 5.36784 1.625H7.632C7.77284 1.625 7.91367 1.68458 8.01117 1.78208ZM3.24991 10.2917C3.24991 10.8875 3.73741 11.375 4.33324 11.375H8.66657C9.26241 11.375 9.74991 10.8875 9.74991 10.2917V4.87499C9.74991 4.27916 9.26241 3.79166 8.66657 3.79166H4.33324C3.73741 3.79166 3.24991 4.27916 3.24991 4.87499V10.2917ZM4.96694 6.05042C5.17818 5.83917 5.51943 5.83917 5.73068 6.05042L6.49985 6.81958L7.26902 6.05042C7.48027 5.83917 7.82152 5.83917 8.03277 6.05042C8.24402 6.26167 8.24402 6.60292 8.03277 6.81417L7.2636 7.58333L8.03277 8.3525C8.24402 8.56375 8.24402 8.905 8.03277 9.11625C7.82152 9.3275 7.48027 9.3275 7.26902 9.11625L6.49985 8.34708L5.73068 9.11625C5.51943 9.3275 5.17818 9.3275 4.96694 9.11625C4.86551 9.01505 4.80851 8.87766 4.80851 8.73438C4.80851 8.59109 4.86551 8.4537 4.96694 8.3525L5.7361 7.58333L4.96694 6.81417C4.75569 6.60833 4.75569 6.26167 4.96694 6.05042Z" fill="#FF605C"/>
</svg>
