<svg width="168" height="160" viewBox="0 0 168 160" fill="none" xmlns="http://www.w3.org/2000/svg">
<path d="M35.272 94.9877C39.7603 94.9877 43.3987 91.3492 43.3987 86.861C43.3987 82.3728 39.7603 78.7344 35.272 78.7344C30.7838 78.7344 27.1454 82.3728 27.1454 86.861C27.1454 91.3492 30.7838 94.9877 35.272 94.9877Z" fill="white"/>
<path d="M40.1479 86.8611H35.7597V82.4727H34.7843V86.8611H30.3959V87.8362H34.7843V92.2246H35.7597V87.8362H40.1479V86.8611Z" fill="#D3D8DD"/>
<path d="M82.7685 82.254C82.809 82.2054 82.8083 82.138 82.7669 82.1034C82.7255 82.0689 82.659 82.0802 82.6185 82.1288C82.578 82.1774 82.5787 82.2448 82.6201 82.2794C82.6615 82.3139 82.728 82.3026 82.7685 82.254Z" fill="#F6F7F8"/>
<path d="M79.918 64.8037C79.5784 64.8041 79.2528 64.9391 79.0127 65.1793C78.7725 65.4194 78.6375 65.745 78.6371 66.0846V87.5317C78.6375 87.8714 78.7725 88.197 79.0127 88.4371C79.2528 88.6773 79.5784 88.8124 79.918 88.8128H166.378C166.718 88.8124 167.043 88.6773 167.284 88.4371C167.524 88.197 167.659 87.8714 167.659 87.5317V66.0846C167.659 65.745 167.524 65.4194 167.284 65.1793C167.043 64.9391 166.718 64.8041 166.378 64.8037H79.918Z" fill="white"/>
<path d="M79.918 64.8037C79.5784 64.8041 79.2528 64.9391 79.0127 65.1793C78.7725 65.4194 78.6375 65.745 78.6371 66.0846V87.5317C78.6375 87.8714 78.7725 88.197 79.0127 88.4371C79.2528 88.6773 79.5784 88.8124 79.918 88.8128H166.378C166.718 88.8124 167.043 88.6773 167.284 88.4371C167.524 88.197 167.659 87.8714 167.659 87.5317V66.0846C167.659 65.745 167.524 65.4194 167.284 65.1793C167.043 64.9391 166.718 64.8041 166.378 64.8037H79.918Z" fill="#D3D8DD"/>
<path d="M80.0781 87.371H166.218V66.2441H80.0781V87.371Z" fill="white"/>
<path d="M91.1258 83.5324C94.8398 83.5324 97.8505 80.5216 97.8505 76.8077C97.8505 73.0937 94.8398 70.083 91.1258 70.083C87.4119 70.083 84.4011 73.0937 84.4011 76.8077C84.4011 80.5216 87.4119 83.5324 91.1258 83.5324Z" fill="#00709F"/>
<path d="M106.657 72.3242C106.36 72.3247 106.075 72.4429 105.865 72.6531C105.655 72.8632 105.538 73.148 105.538 73.445C105.538 73.7419 105.655 74.0267 105.865 74.2369C106.075 74.447 106.36 74.5653 106.657 74.5657H159.493C159.791 74.5657 160.076 74.4477 160.286 74.2375C160.496 74.0273 160.614 73.7422 160.614 73.445C160.614 73.1477 160.496 72.8627 160.286 72.6525C160.076 72.4423 159.791 72.3242 159.493 72.3242H106.657Z" fill="#D3D8DD"/>
<path d="M106.657 79.0488C106.36 79.0493 106.075 79.1676 105.865 79.3777C105.655 79.5878 105.538 79.8726 105.538 80.1696C105.538 80.4665 105.655 80.7514 105.865 80.9615C106.075 81.1716 106.36 81.2899 106.657 81.2904H159.493C159.791 81.2904 160.076 81.1723 160.286 80.9621C160.496 80.7519 160.614 80.4668 160.614 80.1696C160.614 79.8724 160.496 79.5873 160.286 79.3771C160.076 79.1669 159.791 79.0488 159.493 79.0488H106.657Z" fill="#D3D8DD"/>
<path d="M24.5744 0C24.3238 0.000266494 24.0835 0.0999414 23.9063 0.277153C23.7291 0.454365 23.6295 0.69464 23.6292 0.945256V16.7725C23.6294 17.0231 23.7291 17.2634 23.9063 17.4406C24.0835 17.6179 24.3238 17.7176 24.5744 17.7179H88.3791C88.6297 17.7176 88.87 17.6179 89.0472 17.4406C89.2244 17.2634 89.3241 17.0231 89.3243 16.7725V0.945256C89.3241 0.69464 89.2244 0.454365 89.0472 0.277153C88.87 0.0999414 88.6297 0.000266494 88.3791 0H24.5744Z" fill="white"/>
<path d="M24.5744 0C24.3238 0.000266494 24.0835 0.0999414 23.9063 0.277153C23.7291 0.454365 23.6295 0.69464 23.6292 0.945256V16.7725C23.6294 17.0231 23.7291 17.2634 23.9063 17.4406C24.0835 17.6179 24.3238 17.7176 24.5744 17.7179H88.3791C88.6297 17.7176 88.87 17.6179 89.0472 17.4406C89.2244 17.2634 89.3241 17.0231 89.3243 16.7725V0.945256C89.3241 0.69464 89.2244 0.454365 89.0472 0.277153C88.87 0.0999414 88.6297 0.000266494 88.3791 0H24.5744Z" fill="#D3D8DD"/>
<path d="M24.6926 16.6534H88.2609V1.0625H24.6926V16.6534Z" fill="white"/>
<path d="M32.8454 13.8207C35.5862 13.8207 37.808 11.5989 37.808 8.85809C37.808 6.11733 35.5862 3.89551 32.8454 3.89551C30.1047 3.89551 27.8828 6.11733 27.8828 8.85809C27.8828 11.5989 30.1047 13.8207 32.8454 13.8207Z" fill="#00709F"/>
<path d="M44.3066 5.5498C44.0873 5.5498 43.8769 5.63695 43.7218 5.79206C43.5667 5.94717 43.4795 6.15754 43.4795 6.3769C43.4795 6.59626 43.5667 6.80663 43.7218 6.96174C43.8769 7.11685 44.0873 7.20399 44.3066 7.20399H83.2983C83.5177 7.20399 83.7281 7.11685 83.8832 6.96174C84.0383 6.80663 84.1254 6.59626 84.1254 6.3769C84.1254 6.15754 84.0383 5.94717 83.8832 5.79206C83.7281 5.63695 83.5177 5.5498 83.2983 5.5498H44.3066Z" fill="#D3D8DD"/>
<path d="M44.3066 10.5127C44.0875 10.5131 43.8775 10.6004 43.7227 10.7555C43.5679 10.9105 43.481 11.1207 43.481 11.3398C43.481 11.5589 43.5679 11.769 43.7227 11.9241C43.8775 12.0792 44.0875 12.1665 44.3066 12.1669H83.2983C83.4071 12.1671 83.5148 12.1458 83.6153 12.1043C83.7158 12.0629 83.8072 12.002 83.8841 11.9252C83.9611 11.8483 84.0221 11.7571 84.0638 11.6566C84.1055 11.5562 84.1269 11.4485 84.1269 11.3398C84.1269 11.2311 84.1055 11.1234 84.0638 11.0229C84.0221 10.9225 83.9611 10.8312 83.8841 10.7544C83.8072 10.6776 83.7158 10.6167 83.6153 10.5752C83.5148 10.5338 83.4071 10.5125 83.2983 10.5127H44.3066Z" fill="#D3D8DD"/>
<path d="M24.5744 28.2822C24.3238 28.2825 24.0835 28.3822 23.9063 28.5594C23.7291 28.7366 23.6295 28.9769 23.6292 29.2275V45.0547C23.6294 45.3053 23.7291 45.5456 23.9063 45.7229C24.0835 45.9001 24.3238 45.9998 24.5744 46.0001H88.3791C88.6297 45.9998 88.87 45.9001 89.0472 45.7229C89.2244 45.5456 89.3241 45.3053 89.3243 45.0547V29.2275C89.3241 28.9769 89.2244 28.7366 89.0472 28.5594C88.87 28.3822 88.6297 28.2825 88.3791 28.2822H24.5744Z" fill="white"/>
<path d="M24.5744 28.2822C24.3238 28.2825 24.0835 28.3822 23.9063 28.5594C23.7291 28.7366 23.6295 28.9769 23.6292 29.2275V45.0547C23.6294 45.3053 23.7291 45.5456 23.9063 45.7229C24.0835 45.9001 24.3238 45.9998 24.5744 46.0001H88.3791C88.6297 45.9998 88.87 45.9001 89.0472 45.7229C89.2244 45.5456 89.3241 45.3053 89.3243 45.0547V29.2275C89.3241 28.9769 89.2244 28.7366 89.0472 28.5594C88.87 28.3822 88.6297 28.2825 88.3791 28.2822H24.5744Z" fill="#D3D8DD"/>
<path d="M24.6926 44.9366H88.2609V29.3457H24.6926V44.9366Z" fill="white"/>
<path d="M32.8454 42.1029C35.5862 42.1029 37.808 39.8811 37.808 37.1403C37.808 34.3996 35.5862 32.1777 32.8454 32.1777C30.1047 32.1777 27.8828 34.3996 27.8828 37.1403C27.8828 39.8811 30.1047 42.1029 32.8454 42.1029Z" fill="#00709F"/>
<path d="M44.3066 33.833C44.0873 33.833 43.8769 33.9202 43.7218 34.0753C43.5667 34.2304 43.4795 34.4408 43.4795 34.6601C43.4795 34.8795 43.5667 35.0898 43.7218 35.245C43.8769 35.4001 44.0873 35.4872 44.3066 35.4872H83.2983C83.5177 35.4872 83.7281 35.4001 83.8832 35.245C84.0383 35.0898 84.1254 34.8795 84.1254 34.6601C84.1254 34.4408 84.0383 34.2304 83.8832 34.0753C83.7281 33.9202 83.5177 33.833 83.2983 33.833H44.3066Z" fill="#D3D8DD"/>
<path d="M44.3066 38.7949C44.0875 38.7953 43.8775 38.8826 43.7227 39.0377C43.5679 39.1928 43.481 39.4029 43.481 39.622C43.481 39.8411 43.5679 40.0513 43.7227 40.2063C43.8775 40.3614 44.0875 40.4487 44.3066 40.4491H83.2983C83.5177 40.4491 83.7281 40.362 83.8832 40.2069C84.0383 40.0518 84.1254 39.8414 84.1254 39.622C84.1254 39.4027 84.0383 39.1923 83.8832 39.0372C83.7281 38.8821 83.5177 38.7949 83.2983 38.7949H44.3066Z" fill="#D3D8DD"/>
<path d="M68.6725 127.354C86.284 127.654 86.2812 153.851 68.672 154.149C51.0611 153.848 51.0638 127.652 68.6725 127.354Z" fill="#3A3B3F"/>
<path d="M66.6381 151.265H62.5679V158.557H66.6381V151.265Z" fill="#3A3B3F"/>
<path d="M74.7767 151.265H70.7065V158.557H74.7767V151.265Z" fill="#3A3B3F"/>
<path d="M65.9587 157.371C70.3567 157.34 70.3567 159.947 65.9585 159.915C61.5606 159.946 61.5605 157.34 65.9587 157.371Z" fill="#3A3B3F"/>
<path d="M74.0989 157.201C78.4969 157.17 78.497 159.777 74.0987 159.745C69.7008 159.777 69.7007 157.17 74.0989 157.201Z" fill="#3A3B3F"/>
<path d="M69.0122 132.779C75.0006 132.806 75 141.911 69.0119 141.937C63.0238 141.91 63.0243 132.805 69.0122 132.779Z" fill="white"/>
<path d="M69.0122 135.833C70.9925 135.804 70.9926 138.915 69.0121 138.886C67.0319 138.915 67.0319 135.804 69.0122 135.833Z" fill="#949A9F"/>
<path d="M55.6771 128.291C53.16 116.814 72.4412 112.511 75.0427 123.967C76.1244 128.811 72.5803 130.598 67.2327 131.792C61.8851 132.986 56.7589 133.135 55.6771 128.291Z" fill="#999EA3"/>
<path d="M74.5133 91.385C77.6344 83.2116 81.5685 84.7154 78.442 92.8869C75.321 101.06 71.3869 99.5562 74.5133 91.385Z" fill="#3A3B3F"/>
<path d="M50.8682 100.108C53.9861 82.7718 79.8441 86.9708 77.3178 104.4C74.1999 121.736 48.3419 117.537 50.8682 100.108Z" fill="#3A3B3F"/>
<path d="M62.0585 112.769H57.9883V120.061H62.0585V112.769Z" fill="#3A3B3F"/>
<path d="M70.1987 112.769H66.1285V120.061H70.1987V112.769Z" fill="#3A3B3F"/>
<path d="M61.3791 118.873C65.7771 118.842 65.7772 121.449 61.3789 121.417C56.981 121.448 56.9809 118.842 61.3791 118.873Z" fill="#3A3B3F"/>
<path d="M69.5208 118.702C73.9189 118.671 73.9189 121.278 69.5206 121.246C65.1228 121.278 65.1227 118.671 69.5208 118.702Z" fill="#3A3B3F"/>
<path d="M51.0976 89.7934C48.5805 78.3169 67.8616 74.0136 70.4631 85.4699C71.5449 90.3141 68.0008 92.101 62.6532 93.2951C57.3055 94.4892 52.1794 94.6383 51.0976 89.7934Z" fill="#00709F"/>
<path d="M42.9503 93.1646C43.8972 90.6166 56.4305 96.561 55.0554 98.9063C54.1087 101.454 41.5753 95.5096 42.9503 93.1646Z" fill="#3A3B3F"/>
<path d="M118.837 159.995H0.31109C0.228584 159.995 0.149452 159.962 0.0911113 159.904C0.0327705 159.846 0 159.767 0 159.684C0 159.602 0.0327705 159.523 0.0911113 159.464C0.149452 159.406 0.228584 159.373 0.31109 159.373H118.837C118.919 159.373 118.998 159.406 119.057 159.464C119.115 159.523 119.148 159.602 119.148 159.684C119.148 159.767 119.115 159.846 119.057 159.904C118.998 159.962 118.919 159.995 118.837 159.995Z" fill="#949A9F"/>
<path d="M17.9325 159.755C17.6928 160.305 16.8904 159.829 17.1267 159.285C18.2263 156.711 18.9764 154.001 19.3572 151.228C20.0051 146.47 19.6393 141.63 18.284 137.023C18.2342 136.858 18.1844 136.691 18.1347 136.526C18.0164 136.146 17.892 135.767 17.7613 135.393C16.2714 131.048 13.8652 127.074 10.7058 123.74C10.2921 123.304 10.9515 122.645 11.3653 123.08C13.3675 125.176 15.0774 127.532 16.4485 130.086C17.1037 131.302 17.6835 132.557 18.1844 133.844C18.3805 134.345 18.564 134.852 18.7382 135.359C19.7575 138.381 20.3655 141.526 20.5457 144.71C20.8503 149.86 19.9558 155.01 17.9325 159.755Z" fill="#949A9F"/>
<path d="M25.0571 112.211C24.0211 116.003 22.9862 119.796 21.9524 123.588C20.8791 127.514 19.8079 131.438 18.7388 135.359C18.5863 135.916 18.4349 136.471 18.2846 137.024C18.2348 136.859 18.185 136.691 18.1353 136.526C18.017 136.146 17.8926 135.767 17.7619 135.394C17.902 134.877 18.0419 134.361 18.185 133.844C18.3779 133.138 18.5708 132.432 18.7637 131.726C20.5618 125.137 22.3598 118.549 24.158 111.962C24.1941 111.847 24.2738 111.75 24.3801 111.692C24.4865 111.634 24.6112 111.619 24.728 111.652C24.8447 111.684 24.9443 111.76 25.0057 111.865C25.0672 111.969 25.0856 112.093 25.0571 112.211Z" fill="#949A9F"/>
<path d="M5.86524 113.571C5.32132 114.765 4.77252 115.973 4.53713 117.264C4.30173 118.554 4.40893 119.955 5.10679 121.066C5.7003 121.914 6.49304 122.604 7.41544 123.075C8.7179 123.818 10.4115 124.343 11.6572 123.508C12.9153 122.665 13.049 120.76 12.3442 119.42C11.6393 118.08 10.3297 117.181 9.05224 116.367C7.77475 115.554 6.77355 114.911 5.94514 113.643L5.86524 113.571Z" fill="#00709F"/>
<path d="M28.0309 101.409C26.7848 101.818 25.5242 102.234 24.4161 102.936C23.3079 103.637 22.3504 104.666 22.007 105.932C21.7854 106.943 21.8155 107.994 22.0947 108.991C22.4315 110.452 23.1938 112.053 24.6517 112.403C26.1243 112.757 27.6153 111.564 28.123 110.137C28.6306 108.71 28.4038 107.138 28.1358 105.648C27.8677 104.157 27.6618 102.985 28.0323 101.517L28.0309 101.409Z" fill="#00709F"/>
<path d="M5.67066 128.341C6.01682 129.606 6.36898 130.886 7.01413 132.028C7.65927 133.17 8.6387 134.178 9.88572 134.584C10.885 134.856 11.9357 134.879 12.9457 134.65C14.4218 134.387 16.0588 133.706 16.4815 132.267C16.9084 130.814 15.7917 129.265 14.3921 128.687C12.9926 128.108 11.411 128.256 9.9089 128.449C8.40683 128.642 7.22607 128.789 5.77806 128.345L5.67066 128.341Z" fill="#00709F"/>
<path d="M9.40348 144.83C9.74964 146.095 10.1018 147.375 10.7469 148.517C11.3921 149.659 12.3715 150.667 13.6185 151.073C14.6178 151.345 15.6685 151.368 16.6785 151.139C18.1546 150.876 19.7917 150.195 20.2143 148.756C20.6412 147.303 19.5245 145.754 18.1249 145.176C16.7254 144.597 15.1438 144.745 13.6417 144.938C12.1397 145.131 10.9589 145.278 9.51088 144.834L9.40348 144.83Z" fill="#00709F"/>
<path d="M29.8637 133.942C29.5175 135.207 29.1654 136.487 28.5202 137.628C27.8751 138.77 26.8956 139.778 25.6486 140.185C24.6494 140.457 23.5987 140.479 22.5887 140.25C21.1126 139.987 19.4755 139.306 19.0528 137.868C18.6259 136.415 19.7426 134.866 21.1422 134.287C22.5418 133.709 24.1234 133.856 25.6254 134.049C27.1275 134.242 28.3083 134.389 29.7563 133.946L29.8637 133.942Z" fill="#00709F"/>
<path d="M33.5964 117.143C33.2503 118.408 32.8981 119.688 32.253 120.83C31.6078 121.972 30.6284 122.979 29.3814 123.386C28.3821 123.658 27.3314 123.68 26.3214 123.452C24.8453 123.188 23.2082 122.507 22.7856 121.069C22.3587 119.616 23.4754 118.067 24.875 117.488C26.2745 116.91 27.8561 117.058 29.3582 117.251C30.8603 117.444 32.041 117.59 33.489 117.147L33.5964 117.143Z" fill="#00709F"/>
</svg>
