<svg width="10" height="12" viewBox="0 0 10 12" fill="none" xmlns="http://www.w3.org/2000/svg">
<path fill-rule="evenodd" clip-rule="evenodd" d="M6.62758 0.919167L7.04175 1.33333H8.50008C8.82092 1.33333 9.08342 1.59583 9.08342 1.91667C9.08342 2.2375 8.82092 2.5 8.50008 2.5H1.50008C1.17925 2.5 0.916748 2.2375 0.916748 1.91667C0.916748 1.59583 1.17925 1.33333 1.50008 1.33333H2.95842L3.37258 0.919167C3.47758 0.814167 3.62925 0.75 3.78092 0.75H6.21925C6.37092 0.75 6.52258 0.814167 6.62758 0.919167ZM1.50008 10.0833C1.50008 10.725 2.02508 11.25 2.66675 11.25H7.33341C7.97508 11.25 8.50008 10.725 8.50008 10.0833V4.25C8.50008 3.60833 7.97508 3.08333 7.33341 3.08333H2.66675C2.02508 3.08333 1.50008 3.60833 1.50008 4.25V10.0833ZM3.34927 5.51586C3.57677 5.28836 3.94427 5.28836 4.17177 5.51586L5.00011 6.34419L5.82844 5.51586C6.05594 5.28836 6.42344 5.28836 6.65094 5.51586C6.87844 5.74336 6.87844 6.11086 6.65094 6.33836L5.82261 7.16669L6.65094 7.99502C6.87844 8.22252 6.87844 8.59002 6.65094 8.81752C6.42344 9.04502 6.05594 9.04502 5.82844 8.81752L5.00011 7.98919L4.17177 8.81752C3.94427 9.04502 3.57677 9.04502 3.34927 8.81752C3.24004 8.70854 3.17866 8.56058 3.17866 8.40627C3.17866 8.25197 3.24004 8.10401 3.34927 7.99502L4.17761 7.16669L3.34927 6.33836C3.12177 6.11669 3.12177 5.74336 3.34927 5.51586Z" fill="#FF605C"/>
</svg>
