<svg width="13" height="13" viewBox="0 0 13 13" fill="none" xmlns="http://www.w3.org/2000/svg">
<path d="M11.2202 7.2702H7.2702V11.2202C7.2702 11.6547 6.9147 12.0102 6.4802 12.0102C6.04569 12.0102 5.6902 11.6547 5.6902 11.2202V7.2702H1.7402C1.3057 7.2702 0.950195 6.9147 0.950195 6.4802C0.950195 6.04569 1.3057 5.6902 1.7402 5.6902H5.6902V1.7402C5.6902 1.3057 6.04569 0.950195 6.4802 0.950195C6.9147 0.950195 7.2702 1.3057 7.2702 1.7402V5.6902H11.2202C11.6547 5.6902 12.0102 6.04569 12.0102 6.4802C12.0102 6.9147 11.6547 7.2702 11.2202 7.2702Z" fill="#00709F"/>
</svg>
