<svg width="51" height="47" viewBox="0 0 51 47" fill="none" xmlns="http://www.w3.org/2000/svg">
<path fill-rule="evenodd" clip-rule="evenodd" d="M25.5002 5.70833V10.7917H45.8335C48.6293 10.7917 50.9168 13.0792 50.9168 15.875V41.2917C50.9168 44.0875 48.6293 46.375 45.8335 46.375H5.16683C2.371 46.375 0.0834961 44.0875 0.0834961 41.2917V5.70833C0.0834961 2.9125 2.371 0.625 5.16683 0.625H20.4168C23.2127 0.625 25.5002 2.9125 25.5002 5.70833ZM5.16687 41.2917H10.2502V36.2083H5.16687V41.2917ZM10.2502 31.1251H5.16687V26.0417H10.2502V31.1251ZM5.16687 20.9583H10.2502V15.875H5.16687V20.9583ZM10.2502 10.7917H5.16687V5.70837H10.2502V10.7917ZM15.3335 41.2917H20.4168V36.2083H15.3335V41.2917ZM20.4168 31.1251H15.3335V26.0417H20.4168V31.1251ZM15.3335 20.9583H20.4168V15.875H15.3335V20.9583ZM20.4168 10.7917H15.3335V5.70837H20.4168V10.7917ZM25.5002 41.2916H43.2919C44.6898 41.2916 45.8335 40.1479 45.8335 38.75V18.4166C45.8335 17.0187 44.6898 15.875 43.2919 15.875H25.5002V20.9583H30.5836V26.0416H25.5002V31.125H30.5836V36.2083H25.5002V41.2916ZM40.7502 20.9584H35.6668V26.0417H40.7502V20.9584ZM35.6668 31.125H40.7502V36.2083H35.6668V31.125Z" fill="#00709F"/>
</svg>
