<?xml version="1.0" encoding="UTF-8"?>
<svg xmlns="http://www.w3.org/2000/svg" xmlns:xlink="http://www.w3.org/1999/xlink" viewBox="0 0 16 16" width="16px" height="16px">
<g id="surface1310655">
<path style=" stroke:none;fill-rule:nonzero;fill:rgb(0%,43.921569%,62.352943%);fill-opacity:1;" d="M 8.839844 9.910156 L 10.496094 11.566406 C 10.242188 12.046875 10.214844 12.527344 10.480469 12.792969 L 13.5 15.808594 C 13.878906 16.191406 14.707031 15.980469 15.34375 15.34375 C 15.980469 14.707031 16.191406 13.878906 15.808594 13.5 L 12.792969 10.480469 C 12.527344 10.214844 12.046875 10.242188 11.566406 10.492188 L 9.910156 8.839844 Z M 5.667969 0 C 2.535156 0 0 2.535156 0 5.667969 C 0 8.796875 2.535156 11.332031 5.667969 11.332031 C 8.796875 11.332031 11.332031 8.796875 11.332031 5.667969 C 11.332031 2.535156 8.796875 0 5.667969 0 Z M 5.667969 10 C 3.273438 10 1.332031 8.058594 1.332031 5.667969 C 1.332031 3.273438 3.273438 1.332031 5.667969 1.332031 C 8.058594 1.332031 10 3.273438 10 5.667969 C 10 8.058594 8.058594 10 5.667969 10 Z M 5.667969 10 "/>
</g>
</svg>
