<svg width="17" height="15" viewBox="0 0 17 15" fill="none" xmlns="http://www.w3.org/2000/svg">
<path fill-rule="evenodd" clip-rule="evenodd" d="M2.53128 14.198C1.31468 14.198 0.556279 12.8787 1.16458 11.828L7.11328 1.55011C7.72158 0.49941 9.23838 0.49941 9.84668 1.55011L15.7954 11.828C16.4037 12.8787 15.6453 14.198 14.4287 14.198H2.53128ZM14.4287 12.618L8.47998 2.34011L2.53128 12.618H14.4287ZM7.68998 6.29801V7.87801C7.68998 8.31251 8.04548 8.66801 8.47998 8.66801C8.91448 8.66801 9.26998 8.31251 9.26998 7.87801V6.29801C9.26998 5.86351 8.91448 5.50801 8.47998 5.50801C8.04548 5.50801 7.68998 5.86351 7.68998 6.29801ZM9.26998 11.828V10.248H7.68998V11.828H9.26998Z" fill="#FF605C"/>
</svg>
