<svg width="32" height="38" viewBox="0 0 32 38" fill="none" xmlns="http://www.w3.org/2000/svg">
<path fill-rule="evenodd" clip-rule="evenodd" d="M21.8333 0.666504H3.49996C1.66663 0.666504 0.166626 2.1665 0.166626 3.99984V25.6665C0.166626 26.5832 0.916626 27.3332 1.83329 27.3332C2.74996 27.3332 3.49996 26.5832 3.49996 25.6665V5.6665C3.49996 4.74984 4.24996 3.99984 5.16663 3.99984H21.8333C22.75 3.99984 23.5 3.24984 23.5 2.33317C23.5 1.4165 22.75 0.666504 21.8333 0.666504ZM22.8166 8.3165L30.8666 16.3665C31.4833 16.9832 31.8333 17.8332 31.8333 18.7165V33.9998C31.8333 35.8332 30.3333 37.3332 28.5 37.3332H10.15C8.31663 37.3332 6.83329 35.8332 6.83329 33.9998L6.84996 10.6665C6.84996 8.83317 8.33329 7.33317 10.1666 7.33317H20.45C21.3333 7.33317 22.1833 7.68317 22.8166 8.3165ZM29.3333 18.9998H21.8333C20.9166 18.9998 20.1666 18.2498 20.1666 17.3332V9.83317L29.3333 18.9998Z" fill="#D3D8DD"/>
</svg>
