<svg width="13" height="13" viewBox="0 0 13 13" fill="none" xmlns="http://www.w3.org/2000/svg">
<path d="M11.22 7.2702H7.26995V11.2202C7.26995 11.6547 6.91445 12.0102 6.47995 12.0102C6.04545 12.0102 5.68995 11.6547 5.68995 11.2202V7.2702H1.73995C1.30545 7.2702 0.949951 6.9147 0.949951 6.4802C0.949951 6.04569 1.30545 5.6902 1.73995 5.6902H5.68995V1.7402C5.68995 1.3057 6.04545 0.950195 6.47995 0.950195C6.91445 0.950195 7.26995 1.3057 7.26995 1.7402V5.6902H11.22C11.6545 5.6902 12.01 6.04569 12.01 6.4802C12.01 6.9147 11.6545 7.2702 11.22 7.2702Z" fill="#00709F"/>
</svg>
