<svg width="14" height="14" viewBox="0 0 14 14" fill="none" xmlns="http://www.w3.org/2000/svg">
<g id="mail_outline_24px">
<path id="icon/communication/mail_outline_24px" fill-rule="evenodd" clip-rule="evenodd" d="M11.6667 2.33325H2.33341C1.69175 2.33325 1.17258 2.85825 1.17258 3.49992L1.16675 10.4999C1.16675 11.1416 1.69175 11.6666 2.33341 11.6666H11.6667C12.3084 11.6666 12.8334 11.1416 12.8334 10.4999V3.49992C12.8334 2.85825 12.3084 2.33325 11.6667 2.33325ZM11.6667 9.91659C11.6667 10.2374 11.4042 10.4999 11.0834 10.4999H2.91675C2.59591 10.4999 2.33341 10.2374 2.33341 9.91659V4.66659L6.38175 7.19825C6.76091 7.43742 7.23925 7.43742 7.61841 7.19825L11.6667 4.66659V9.91659ZM2.33341 3.49992L7.00008 6.41659L11.6667 3.49992H2.33341Z" fill="#00709F"/>
</g>
</svg>
