<svg width="14" height="14" viewBox="0 0 14 14" fill="none" xmlns="http://www.w3.org/2000/svg">
<g id="arrow_forward_24px">
<path id="icon/navigation/arrow_forward_24px" d="M3.03844 7.58308H9.55428L6.70761 10.4298C6.48011 10.6573 6.48011 11.0306 6.70761 11.2581C6.93511 11.4856 7.30261 11.4856 7.53011 11.2581L11.3743 7.41392C11.6018 7.18642 11.6018 6.81892 11.3743 6.59142L7.53594 2.74142C7.42696 2.63219 7.27899 2.5708 7.12469 2.5708C6.97039 2.5708 6.82243 2.63219 6.71344 2.74142C6.48594 2.96892 6.48594 3.33642 6.71344 3.56392L9.55428 6.41642H3.03844C2.71761 6.41642 2.45511 6.67892 2.45511 6.99975C2.45511 7.32058 2.71761 7.58308 3.03844 7.58308Z" fill="#00709F"/>
</g>
</svg>
