<svg width="211" height="161" viewBox="0 0 211 161" fill="none" xmlns="http://www.w3.org/2000/svg">
<path d="M156.179 30.1454C156.715 29.5501 157.209 28.9186 157.657 28.2552L148.27 26.0601L158.531 26.8245C159.659 24.7478 160.352 22.4626 160.567 20.1089C160.782 17.7552 160.514 15.3824 159.78 13.1357L145.528 19.3574L158.856 10.8718C157.804 8.73562 156.323 6.83901 154.506 5.30009C152.689 3.76117 150.574 2.61292 148.294 1.92686C146.014 1.2408 143.616 1.03163 141.252 1.31238C138.887 1.59314 136.606 2.3578 134.55 3.55873C132.493 4.75967 130.706 6.37115 129.3 8.29278C127.894 10.2144 126.898 12.405 126.376 14.7282C125.853 17.0513 125.814 19.4572 126.262 21.796C126.71 24.1348 127.634 26.3563 128.978 28.3222C128.143 29.2486 127.41 30.2623 126.793 31.3457L138.685 38.5729L125.843 33.283C124.737 35.9481 124.314 38.8468 124.611 41.7168C124.908 44.5867 125.916 47.3373 127.544 49.7197C125.548 51.9349 124.156 54.6272 123.504 57.5367C122.852 60.4463 122.961 63.4748 123.821 66.33C124.68 69.1851 126.261 71.7705 128.411 73.8366C130.561 75.9026 133.207 77.3795 136.094 78.1248C135.822 78.7547 135.661 79.4268 135.618 80.1115C135.54 81.124 135.733 82.139 136.178 83.052C135.624 83.9019 135.298 84.8795 135.23 85.8915C135.162 86.9035 135.355 87.9159 135.79 88.832C135.237 89.6819 134.911 90.6595 134.843 91.6715C134.775 92.6835 134.968 93.6959 135.403 94.612C134.849 95.4619 134.523 96.4396 134.455 97.4515C134.387 98.4635 134.58 99.476 135.016 100.392C134.453 101.238 134.126 102.218 134.068 103.232C133.893 105.843 135.368 108.069 137.363 108.203C139.359 108.337 141.118 106.328 141.293 103.716C141.371 102.703 141.177 101.688 140.733 100.775C141.286 99.9254 141.613 98.9477 141.68 97.9358C141.748 96.9238 141.555 95.9113 141.12 94.9952C141.674 94.1454 142 93.1677 142.068 92.1558C142.136 91.1438 141.943 90.1313 141.507 89.2152C142.061 88.3654 142.387 87.3877 142.455 86.3757C142.523 85.3638 142.33 84.3513 141.895 83.4352C142.457 82.5897 142.785 81.6096 142.843 80.5957C142.892 79.9014 142.819 79.2039 142.627 78.5347C145.572 78.1577 148.371 77.0309 150.756 75.2624C153.141 73.4938 155.032 71.1426 156.249 68.4338C157.465 65.7251 157.965 62.7496 157.702 59.7921C157.439 56.8346 156.421 53.9942 154.745 51.5428C157.349 48.6534 158.905 44.9729 159.165 41.0923C159.425 37.2118 158.374 33.3564 156.179 30.1454V30.1454Z" fill="#F6F7F8"/>
<path d="M175.125 106.622C175.125 109.179 157.093 117.94 135.612 117.94C114.13 117.94 97.3337 109.179 97.3337 106.622C97.3337 104.064 114.13 108.68 135.612 108.68C157.093 108.68 175.125 104.064 175.125 106.622Z" fill="#323C47"/>
<path opacity="0.1" d="M175.125 106.622C175.125 109.179 157.093 117.94 135.612 117.94C114.13 117.94 97.3337 109.179 97.3337 106.622C97.3337 104.064 114.13 108.68 135.612 108.68C157.093 108.68 175.125 104.064 175.125 106.622Z" fill="#3A3B3F"/>
<path d="M136.229 111.253C157.711 111.253 175.125 109.18 175.125 106.623C175.125 104.065 157.711 101.992 136.229 101.992C114.748 101.992 97.3337 104.065 97.3337 106.623C97.3337 109.18 114.748 111.253 136.229 111.253Z" fill="#323C47"/>
<path opacity="0.1" d="M137.149 110.99C144.435 110.99 150.341 109.303 150.341 107.221C150.341 105.14 144.435 103.452 137.149 103.452C129.864 103.452 123.958 105.14 123.958 107.221C123.958 109.303 129.864 110.99 137.149 110.99Z" fill="#3A3B3F"/>
<path d="M140.043 82.1919C140.548 81.3107 140.809 80.3109 140.799 79.2954C140.799 76.6777 139.178 74.5557 137.179 74.5557C135.179 74.5557 133.558 76.6777 133.558 79.2954C133.548 80.3109 133.809 81.3107 134.314 82.1919C133.818 83.0768 133.558 84.0741 133.558 85.0884C133.558 86.1026 133.818 87.0999 134.314 87.9849C133.818 88.8698 133.558 89.8671 133.558 90.8814C133.558 91.8956 133.818 92.8929 134.314 93.7779C133.818 94.6628 133.558 95.6601 133.558 96.6744C133.558 97.6886 133.818 98.6859 134.314 99.5708C133.809 100.452 133.548 101.452 133.558 102.467C133.558 105.085 135.179 107.207 137.179 107.207C139.178 107.207 140.799 105.085 140.799 102.467C140.809 101.452 140.548 100.452 140.043 99.5708C140.539 98.6859 140.799 97.6886 140.799 96.6744C140.799 95.6601 140.539 94.6628 140.043 93.7779C140.539 92.8929 140.799 91.8956 140.799 90.8814C140.799 89.8671 140.539 88.8698 140.043 87.9849C140.539 87.0999 140.799 86.1026 140.799 85.0884C140.799 84.0741 140.539 83.0768 140.043 82.1919Z" fill="#323C47"/>
<path d="M137.179 78.2421C139.178 78.2421 140.799 76.1201 140.799 73.5024C140.799 70.8847 139.178 68.7627 137.179 68.7627C135.179 68.7627 133.558 70.8847 133.558 73.5024C133.558 76.1201 135.179 78.2421 137.179 78.2421Z" fill="#323C47"/>
<path d="M137.179 72.4501C139.178 72.4501 140.799 70.3281 140.799 67.7104C140.799 65.0927 139.178 62.9707 137.179 62.9707C135.179 62.9707 133.558 65.0927 133.558 67.7104C133.558 70.3281 135.179 72.4501 137.179 72.4501Z" fill="#323C47"/>
<path d="M150.732 28.0664C151.227 27.4367 151.678 26.7735 152.081 26.0816L142.567 24.5192L152.856 24.5957C153.843 22.4482 154.382 20.1218 154.439 17.759C154.496 15.3962 154.07 13.0466 153.187 10.854L139.383 18.0148L152.114 8.65697C150.921 6.59597 149.317 4.80264 147.401 3.38869C145.485 1.97475 143.298 0.970481 140.977 0.43845C138.656 -0.0935803 136.251 -0.141975 133.91 0.296282C131.57 0.734539 129.344 1.65006 127.373 2.98581C125.402 4.32155 123.727 6.04891 122.452 8.06028C121.177 10.0717 120.331 12.3239 119.965 14.6768C119.598 17.0297 119.721 19.4328 120.324 21.7364C120.927 24.04 121.998 26.1948 123.47 28.0664C122.699 29.0466 122.035 30.1069 121.492 31.2292L133.841 37.645L120.673 33.2257C119.749 35.9588 119.52 38.8793 120.008 41.723C120.497 44.5666 121.686 47.2437 123.47 49.5118C121.458 52.07 120.206 55.1427 119.858 58.3787C119.51 61.6146 120.079 64.8833 121.501 67.8109C122.923 70.7384 125.14 73.2068 127.899 74.9338C130.657 76.6607 133.846 77.5766 137.101 77.5766C140.356 77.5766 143.545 76.6607 146.303 74.9338C149.062 73.2068 151.279 70.7384 152.701 67.8109C154.123 64.8833 154.692 61.6146 154.344 58.3787C153.996 55.1427 152.744 52.07 150.732 49.5118C153.137 46.4548 154.444 42.6784 154.444 38.7891C154.444 34.8999 153.137 31.1235 150.732 28.0664Z" fill="#00709F"/>
<path opacity="0.1" d="M119.758 38.7887C119.752 42.679 121.06 46.4573 123.47 49.5115C121.457 52.0696 120.206 55.1423 119.858 58.3783C119.509 61.6143 120.079 64.8829 121.501 67.8105C122.923 70.7381 125.14 73.2064 127.899 74.9334C130.657 76.6603 133.846 77.5762 137.101 77.5762C140.356 77.5762 143.545 76.6603 146.303 74.9334C149.062 73.2064 151.279 70.7381 152.701 67.8105C154.123 64.8829 154.692 61.6143 154.344 58.3783C153.996 55.1423 152.744 52.0696 150.732 49.5115C153.057 46.5605 119.758 36.8422 119.758 38.7887Z" fill="#3A3B3F"/>
<path d="M198.936 55.8435L202.842 52.3602C195.088 50.9175 187.305 57.7395 185.274 67.6711C185.207 67.6843 185.14 67.7009 185.074 67.721L180.669 53.2742C180.345 54.9925 180.201 56.7399 180.239 58.4881L176.804 51.8174C175.416 59.2794 178.721 66.2129 184.27 67.8746C183.807 67.8753 183.344 67.8421 182.886 67.7752C182.865 67.7721 182.85 67.7699 182.85 67.7699C182.815 68.1382 182.825 68.5094 182.881 68.875C182.906 69.0798 182.993 69.2719 183.132 69.4246C183.301 69.5766 183.779 69.7865 184.405 70.0031C184.453 70.0198 184.502 70.0365 184.552 70.0532C184.951 70.187 185.401 70.3219 185.866 70.446C186.446 70.6011 187.05 70.7394 187.602 70.8377C187.663 70.8483 187.718 70.8551 187.77 70.8593C187.786 70.8607 187.801 70.8605 187.817 70.8612C187.851 70.8627 187.884 70.8637 187.914 70.8624C187.93 70.8618 187.945 70.86 187.961 70.8585C187.986 70.8563 188.011 70.8527 188.036 70.8479C188.05 70.845 188.064 70.8417 188.077 70.838C188.098 70.8322 188.119 70.8248 188.139 70.8161C188.15 70.8115 188.16 70.807 188.17 70.8017C188.189 70.7916 188.207 70.7799 188.223 70.7666C188.23 70.7613 188.238 70.7566 188.244 70.7509C188.263 70.7334 188.28 70.7138 188.295 70.6923C188.296 70.6903 188.298 70.6886 188.3 70.6865C188.316 70.6612 188.33 70.634 188.34 70.6054C188.34 70.6036 188.341 70.6014 188.341 70.5995C188.351 70.5719 188.358 70.5436 188.362 70.5148C188.362 70.5129 188.363 70.5112 188.363 70.5092L188.363 70.5103C188.464 69.8443 187.53 68.435 187.519 68.0361C187.507 67.6545 186.571 67.5519 185.807 67.6036L200.18 56.0008C199.769 55.9245 199.353 55.872 198.936 55.8435Z" fill="#F6F7F8"/>
<path d="M210.226 69.752C210.226 71.486 197.999 77.4267 183.434 77.4267C168.868 77.4267 157.479 71.486 157.479 69.752C157.479 68.018 168.868 71.1474 183.434 71.1474C197.999 71.1474 210.226 68.018 210.226 69.752Z" fill="#323C47"/>
<path opacity="0.1" d="M210.226 69.752C210.226 71.486 197.999 77.4267 183.434 77.4267C168.868 77.4267 157.479 71.486 157.479 69.752C157.479 68.018 168.868 71.1474 183.434 71.1474C197.999 71.1474 210.226 68.018 210.226 69.752Z" fill="#3A3B3F"/>
<path d="M183.853 72.8916C198.418 72.8916 210.226 71.4859 210.226 69.752C210.226 68.018 198.418 66.6123 183.853 66.6123C169.287 66.6123 157.479 68.018 157.479 69.752C157.479 71.4859 169.287 72.8916 183.853 72.8916Z" fill="#323C47"/>
<path opacity="0.1" d="M183.843 71.6254C186.965 71.6254 189.496 70.7817 189.496 69.7409C189.496 68.7002 186.965 67.8564 183.843 67.8564C180.72 67.8564 178.189 68.7002 178.189 69.7409C178.189 70.7817 180.72 71.6254 183.843 71.6254Z" fill="#3A3B3F"/>
<path d="M172.088 54.1211C172.088 62.1222 177.107 68.5967 183.31 68.5967L172.088 54.1211Z" fill="#323C47"/>
<path d="M183.31 68.5962C183.31 60.5052 188.912 53.958 195.834 53.958L183.31 68.5962Z" fill="#00709F"/>
<path d="M176.154 54.8467C176.154 62.4469 179.355 68.5969 183.31 68.5969L176.154 54.8467Z" fill="#00709F"/>
<path d="M183.31 68.597C183.31 58.2584 189.785 49.8926 197.786 49.8926L183.31 68.597Z" fill="#323C47"/>
<path d="M180.949 68.6989C180.949 68.6989 182.541 68.6499 183.021 68.3083C183.5 67.9667 185.469 67.5589 185.588 68.1067C185.707 68.6545 187.98 70.8311 186.183 70.8456C184.386 70.8601 182.008 70.5657 181.529 70.2741C181.05 69.9825 180.949 68.6989 180.949 68.6989Z" fill="#999EA3"/>
<path opacity="0.2" d="M186.215 70.6554C184.418 70.6699 182.04 70.3755 181.561 70.0839C181.196 69.8618 181.051 69.0649 181.002 68.6973C180.969 68.6987 180.949 68.6993 180.949 68.6993C180.949 68.6993 181.05 69.9829 181.529 70.2745C182.008 70.5662 184.386 70.8605 186.183 70.846C186.701 70.8418 186.881 70.6573 186.871 70.384C186.799 70.5491 186.601 70.6522 186.215 70.6554Z" fill="#3A3B3F"/>
<path d="M129.019 141.229C129.019 145.47 99.1134 160.001 63.4857 160.001C27.858 160.001 0 145.47 0 141.229C0 136.987 27.858 144.642 63.4857 144.642C99.1134 144.642 129.019 136.987 129.019 141.229Z" fill="#323C47"/>
<path opacity="0.1" d="M129.019 141.229C129.019 145.47 99.1134 160.001 63.4857 160.001C27.858 160.001 0 145.47 0 141.229C0 136.987 27.858 144.642 63.4857 144.642C99.1134 144.642 129.019 136.987 129.019 141.229Z" fill="#3A3B3F"/>
<path d="M64.5097 148.908C100.137 148.908 129.019 145.47 129.019 141.229C129.019 136.987 100.137 133.549 64.5097 133.549C28.882 133.549 0 136.987 0 141.229C0 145.47 28.882 148.908 64.5097 148.908Z" fill="#323C47"/>
<path opacity="0.1" d="M64.9103 144.492C76.7058 144.492 86.2679 142.43 86.2679 139.886C86.2679 137.342 76.7058 135.279 64.9103 135.279C53.1149 135.279 43.5527 137.342 43.5527 139.886C43.5527 142.43 53.1149 144.492 64.9103 144.492Z" fill="#3A3B3F"/>
<path d="M22.6139 48.5929C32.5591 48.5929 40.6213 40.5307 40.6213 30.5855C40.6213 20.6403 32.5591 12.5781 22.6139 12.5781C12.6687 12.5781 4.60657 20.6403 4.60657 30.5855C4.60657 40.5307 12.6687 48.5929 22.6139 48.5929Z" fill="#FF9C99"/>
<path d="M75.2386 59.1959C76.7354 55.2798 76.9522 51.7242 75.7228 51.2543C74.4934 50.7844 72.2834 53.5781 70.7866 57.4942C69.2898 61.4103 69.073 64.9659 70.3024 65.4358C71.5318 65.9057 73.7418 63.112 75.2386 59.1959Z" fill="#3A3B3F"/>
<path d="M76.0851 54.2952C77.5376 54.2952 78.7151 53.1177 78.7151 51.6652C78.7151 50.2127 77.5376 49.0352 76.0851 49.0352C74.6326 49.0352 73.4551 50.2127 73.4551 51.6652C73.4551 53.1177 74.6326 54.2952 76.0851 54.2952Z" fill="#00709F"/>
<path d="M64.1687 128.615C72.5535 128.615 79.3507 121.818 79.3507 113.433C79.3507 105.048 72.5535 98.251 64.1687 98.251C55.7839 98.251 48.9867 105.048 48.9867 113.433C48.9867 121.818 55.7839 128.615 64.1687 128.615Z" fill="#3A3B3F"/>
<path d="M61.8625 125.348H57.2502V133.611H61.8625V125.348Z" fill="#3A3B3F"/>
<path d="M71.0871 125.348H66.4749V133.611H71.0871V125.348Z" fill="#3A3B3F"/>
<path d="M64.5531 114.778C67.4187 114.778 69.7418 112.455 69.7418 109.589C69.7418 106.723 67.4187 104.4 64.5531 104.4C61.6874 104.4 59.3643 106.723 59.3643 109.589C59.3643 112.455 61.6874 114.778 64.5531 114.778Z" fill="white"/>
<path d="M64.5531 111.32C65.5083 111.32 66.2827 110.545 66.2827 109.59C66.2827 108.635 65.5083 107.86 64.5531 107.86C63.5979 107.86 62.8235 108.635 62.8235 109.59C62.8235 110.545 63.5979 111.32 64.5531 111.32Z" fill="#323C47"/>
<path d="M49.4416 99.3145C48.2157 93.8244 52.1344 88.277 58.1941 86.9239C64.2539 85.5708 70.1601 88.9245 71.386 94.4145C72.6119 99.9046 68.5958 101.929 62.5361 103.282C56.4763 104.636 50.6675 104.805 49.4416 99.3145Z" fill="#00709F"/>
<path d="M58.9799 84.991C67.3647 84.991 74.1619 78.1938 74.1619 69.809C74.1619 61.4242 67.3647 54.627 58.9799 54.627C50.5951 54.627 43.7979 61.4242 43.7979 69.809C43.7979 78.1938 50.5951 84.991 58.9799 84.991Z" fill="#3A3B3F"/>
<path d="M56.6738 81.7236H52.0615V89.9873H56.6738V81.7236Z" fill="#3A3B3F"/>
<path d="M65.8983 81.7236H61.286V89.9873H65.8983V81.7236Z" fill="#3A3B3F"/>
<path d="M55.9051 91.5252C58.0278 91.5252 59.7486 90.8799 59.7486 90.0839C59.7486 89.2879 58.0278 88.6426 55.9051 88.6426C53.7823 88.6426 52.0615 89.2879 52.0615 90.0839C52.0615 90.8799 53.7823 91.5252 55.9051 91.5252Z" fill="#3A3B3F"/>
<path d="M65.1296 91.3329C67.2523 91.3329 68.9731 90.6876 68.9731 89.8915C68.9731 89.0955 67.2523 88.4502 65.1296 88.4502C63.0068 88.4502 61.286 89.0955 61.286 89.8915C61.286 90.6876 63.0068 91.3329 65.1296 91.3329Z" fill="#3A3B3F"/>
<path d="M59.3643 71.154C62.23 71.154 64.5531 68.8309 64.5531 65.9652C64.5531 63.0995 62.23 60.7764 59.3643 60.7764C56.4986 60.7764 54.1755 63.0995 54.1755 65.9652C54.1755 68.8309 56.4986 71.154 59.3643 71.154Z" fill="white"/>
<path d="M59.3642 67.6945C60.3195 67.6945 61.0938 66.9202 61.0938 65.965C61.0938 65.0097 60.3195 64.2354 59.3642 64.2354C58.409 64.2354 57.6346 65.0097 57.6346 65.965C57.6346 66.9202 58.409 67.6945 59.3642 67.6945Z" fill="#323C47"/>
<path d="M44.2529 55.6905C43.027 50.2004 46.9457 44.653 53.0054 43.2999C59.0652 41.9468 64.9714 45.3004 66.1973 50.7905C67.4231 56.2805 63.4071 58.3054 57.3473 59.6585C51.2876 61.0116 45.4788 61.1805 44.2529 55.6905Z" fill="#00709F"/>
<path d="M48.7386 66.0178C49.3026 64.8287 46.6891 62.4083 42.9011 60.6117C39.1132 58.8151 35.5852 58.3227 35.0212 59.5119C34.4572 60.701 37.0707 63.1214 40.8587 64.918C44.6466 66.7146 48.1746 67.207 48.7386 66.0178Z" fill="#3A3B3F"/>
<path d="M51.5225 75.2866C51.5225 76.7725 55.3484 79.7067 59.5939 79.7067C63.8394 79.7067 67.82 75.5234 67.82 74.0375C67.82 72.5516 63.8394 74.3257 59.5939 74.3257C55.3484 74.3257 51.5225 73.8007 51.5225 75.2866Z" fill="white"/>
<path d="M46.4896 133.281C47.9422 133.281 49.1197 132.103 49.1197 130.651C49.1197 129.198 47.9422 128.021 46.4896 128.021C45.0371 128.021 43.8596 129.198 43.8596 130.651C43.8596 132.103 45.0371 133.281 46.4896 133.281Z" fill="#00709F"/>
<path d="M89.4975 127.57H82.5791V134.489H89.4975V127.57Z" fill="#FF9C99"/>
<path d="M82.619 134.818C84.0715 134.818 85.249 133.64 85.249 132.188C85.249 130.735 84.0715 129.558 82.619 129.558C81.1665 129.558 79.989 130.735 79.989 132.188C79.989 133.64 81.1665 134.818 82.619 134.818Z" fill="#00709F"/>
</svg>
