<?xml version="1.0" encoding="UTF-8"?>
<svg xmlns="http://www.w3.org/2000/svg" xmlns:xlink="http://www.w3.org/1999/xlink" viewBox="0 0 18 18" width="18px" height="18px">
<g id="surface53746">
<path style=" stroke:none;fill-rule:nonzero;fill:rgb(58.039218%,60.392159%,62.352943%);fill-opacity:1;" d="M 6.03125 2.28125 C 5.832031 2.28125 5.644531 2.359375 5.503906 2.5 L 5.191406 2.8125 C 4.898438 3.105469 4.898438 3.582031 5.191406 3.871094 L 8.320312 7.003906 L 2.050781 13.273438 C 1.316406 14.011719 1.316406 15.210938 2.050781 15.945312 C 2.410156 16.304688 2.886719 16.5 3.390625 16.5 C 3.894531 16.5 4.367188 16.304688 4.726562 15.945312 L 10.996094 9.675781 L 13.410156 12.089844 C 13.703125 12.382812 14.175781 12.382812 14.46875 12.089844 L 16.589844 9.96875 C 16.882812 9.679688 16.882812 9.207031 16.59375 8.910156 L 14.191406 6.484375 L 14.78125 5.894531 C 15.074219 5.601562 15.074219 5.125 14.78125 4.832031 L 13.167969 3.21875 C 12.875 2.925781 12.398438 2.925781 12.105469 3.21875 L 11.53125 3.796875 L 10.25 2.503906 C 10.109375 2.363281 9.917969 2.28125 9.71875 2.28125 Z M 7.222656 3.78125 L 9.402344 3.78125 L 15.003906 9.4375 L 13.941406 10.5 Z M 7.222656 3.78125 "/>
</g>
</svg>
