<?xml version="1.0" encoding="UTF-8"?>
<svg xmlns="http://www.w3.org/2000/svg" xmlns:xlink="http://www.w3.org/1999/xlink" viewBox="0 0 32 32" width="32px" height="32px">
<g id="surface2553366">
<path style=" stroke:none;fill-rule:nonzero;fill:rgb(100%,100%,100%);fill-opacity:1;" d="M 7.039062 2.558594 C 5.984375 2.558594 5.121094 3.421875 5.121094 4.480469 L 5.121094 27.519531 C 5.121094 28.578125 5.984375 29.441406 7.039062 29.441406 L 24.960938 29.441406 C 26.015625 29.441406 26.878906 28.578125 26.878906 27.519531 L 26.878906 4.480469 C 26.878906 3.421875 26.015625 2.558594 24.960938 2.558594 Z M 8.960938 5.761719 L 23.039062 5.761719 L 23.039062 10.878906 L 8.960938 10.878906 Z M 15.359375 7.679688 L 15.359375 8.960938 L 16.640625 8.960938 L 16.640625 7.679688 Z M 17.921875 7.679688 L 17.921875 8.960938 L 19.199219 8.960938 L 19.199219 7.679688 Z M 20.480469 7.679688 L 20.480469 8.960938 L 21.761719 8.960938 L 21.761719 7.679688 Z M 8.960938 15.359375 L 11.519531 15.359375 L 11.519531 17.921875 L 8.960938 17.921875 Z M 12.800781 15.359375 L 15.359375 15.359375 L 15.359375 17.921875 L 12.800781 17.921875 Z M 16.640625 15.359375 L 19.199219 15.359375 L 19.199219 17.921875 L 16.640625 17.921875 Z M 20.480469 15.359375 L 23.039062 15.359375 L 23.039062 17.921875 L 20.480469 17.921875 Z M 8.960938 19.199219 L 11.519531 19.199219 L 11.519531 21.761719 L 8.960938 21.761719 Z M 12.800781 19.199219 L 15.359375 19.199219 L 15.359375 21.761719 L 12.800781 21.761719 Z M 16.640625 19.199219 L 19.199219 19.199219 L 19.199219 21.761719 L 16.640625 21.761719 Z M 20.480469 19.199219 L 23.039062 19.199219 L 23.039062 21.761719 L 20.480469 21.761719 Z M 8.960938 23.039062 L 11.519531 23.039062 L 11.519531 25.601562 L 8.960938 25.601562 Z M 12.800781 23.039062 L 15.359375 23.039062 L 15.359375 25.601562 L 12.800781 25.601562 Z M 16.640625 23.039062 L 19.199219 23.039062 L 19.199219 25.601562 L 16.640625 25.601562 Z M 20.480469 23.039062 L 23.039062 23.039062 L 23.039062 25.601562 L 20.480469 25.601562 Z M 20.480469 23.039062 "/>
</g>
</svg>
