<?xml version="1.0" encoding="UTF-8"?>
<svg xmlns="http://www.w3.org/2000/svg" xmlns:xlink="http://www.w3.org/1999/xlink" viewBox="0 0 24 24" width="24px" height="24px">
<g id="surface14976474">
<path style=" stroke:none;fill-rule:nonzero;fill:rgb(0%,43.921569%,62.352943%);fill-opacity:1;" d="M 8.042969 3.042969 C 7.777344 3.042969 7.523438 3.148438 7.335938 3.335938 L 6.921875 3.75 C 6.53125 4.140625 6.53125 4.773438 6.921875 5.164062 L 11.09375 9.335938 L 2.734375 17.695312 C 1.753906 18.679688 1.753906 20.28125 2.734375 21.261719 C 3.210938 21.738281 3.847656 22 4.519531 22 C 5.191406 22 5.824219 21.738281 6.300781 21.261719 L 14.660156 12.902344 L 17.878906 16.121094 C 18.269531 16.511719 18.902344 16.511719 19.292969 16.121094 L 22.121094 13.292969 C 22.511719 12.902344 22.511719 12.273438 22.125 11.882812 L 18.917969 8.644531 L 19.707031 7.855469 C 20.097656 7.464844 20.097656 6.832031 19.707031 6.445312 L 17.554688 4.292969 C 17.167969 3.902344 16.53125 3.902344 16.140625 4.292969 L 15.371094 5.0625 L 13.667969 3.339844 C 13.480469 3.148438 13.222656 3.042969 12.957031 3.042969 Z M 9.628906 5.042969 L 12.539062 5.042969 L 20.003906 12.582031 L 18.585938 14 Z M 9.628906 5.042969 "/>
</g>
</svg>
