<?xml version="1.0" encoding="UTF-8"?>
<svg xmlns="http://www.w3.org/2000/svg" xmlns:xlink="http://www.w3.org/1999/xlink" viewBox="0 0 18 18" width="18px" height="18px">
<g id="surface2603272">
<path style=" stroke:none;fill-rule:nonzero;fill:rgb(58.039218%,60.392159%,62.352943%);fill-opacity:1;" d="M 4.3125 2.25 C 3.179688 2.25 2.25 3.179688 2.25 4.3125 L 2.25 13.6875 C 2.25 14.820312 3.179688 15.75 4.3125 15.75 L 13.6875 15.75 C 14.820312 15.75 15.75 14.820312 15.75 13.6875 L 15.75 4.3125 C 15.75 3.179688 14.820312 2.25 13.6875 2.25 Z M 4.3125 3.375 L 13.6875 3.375 C 14.210938 3.375 14.625 3.789062 14.625 4.3125 L 14.625 13.6875 C 14.625 14.210938 14.210938 14.625 13.6875 14.625 L 4.3125 14.625 C 3.789062 14.625 3.375 14.210938 3.375 13.6875 L 3.375 4.3125 C 3.375 3.789062 3.789062 3.375 4.3125 3.375 Z M 12.925781 4.496094 C 12.90625 4.496094 12.886719 4.496094 12.867188 4.5 L 8.8125 4.5 C 8.609375 4.496094 8.421875 4.605469 8.320312 4.777344 C 8.214844 4.953125 8.214844 5.171875 8.320312 5.347656 C 8.421875 5.519531 8.609375 5.628906 8.8125 5.625 L 11.578125 5.625 L 5.789062 11.414062 C 5.644531 11.554688 5.582031 11.765625 5.636719 11.960938 C 5.6875 12.160156 5.839844 12.3125 6.039062 12.363281 C 6.234375 12.417969 6.445312 12.355469 6.585938 12.210938 L 12.375 6.421875 L 12.375 9.1875 C 12.371094 9.390625 12.480469 9.578125 12.652344 9.679688 C 12.828125 9.785156 13.046875 9.785156 13.222656 9.679688 C 13.394531 9.578125 13.503906 9.390625 13.5 9.1875 L 13.5 5.132812 C 13.523438 4.96875 13.472656 4.804688 13.359375 4.679688 C 13.25 4.558594 13.089844 4.488281 12.925781 4.496094 Z M 12.925781 4.496094 "/>
</g>
</svg>
