<?xml version="1.0" encoding="UTF-8"?>
<svg xmlns="http://www.w3.org/2000/svg" xmlns:xlink="http://www.w3.org/1999/xlink" viewBox="0 0 32 32" width="32px" height="32px">
<g id="surface77123808">
<path style=" stroke:none;fill-rule:nonzero;fill:rgb(100%,100%,100%);fill-opacity:1;" d="M 16 6.398438 C 12.605469 6.398438 11.199219 8.578125 11.199219 11.199219 C 11.199219 12.082031 11.621094 12.972656 11.621094 12.972656 C 11.453125 13.070312 11.171875 13.378906 11.242188 13.929688 C 11.371094 14.957031 11.816406 15.214844 12.101562 15.238281 C 12.210938 16.195312 13.242188 17.421875 13.601562 17.601562 L 13.601562 19.03125 C 12.800781 21.429688 6.398438 21.066406 6.398438 26.667969 L 25.601562 26.667969 C 25.601562 21.066406 19.199219 21.429688 18.398438 19.03125 L 18.398438 17.601562 C 18.761719 17.421875 19.789062 16.195312 19.898438 15.238281 C 20.183594 15.214844 20.628906 14.957031 20.757812 13.929688 C 20.828125 13.378906 20.546875 13.070312 20.378906 12.972656 C 20.378906 12.972656 20.800781 12.167969 20.800781 11.199219 C 20.800781 9.257812 20.039062 7.601562 18.398438 7.601562 C 18.398438 7.601562 17.832031 6.398438 16 6.398438 Z M 24 8.53125 C 23.453125 8.53125 22.988281 8.628906 22.5625 8.769531 C 22.796875 9.496094 22.933594 10.304688 22.933594 11.199219 C 22.933594 11.765625 22.84375 12.289062 22.730469 12.722656 C 22.886719 13.179688 22.9375 13.683594 22.871094 14.199219 C 22.722656 15.375 22.265625 16.171875 21.695312 16.675781 C 21.527344 17.078125 21.300781 17.460938 21.054688 17.824219 C 21.355469 18.445312 21.800781 19 22 19.113281 L 22 19.125 C 24.171875 20.144531 27.734375 21.855469 27.734375 26.667969 L 32 26.667969 C 32 21.378906 26.667969 22.136719 26 19.871094 L 26 19.109375 C 26.300781 18.941406 27.160156 17.785156 27.246094 16.878906 C 27.484375 16.859375 27.855469 16.617188 27.964844 15.644531 C 28.023438 15.125 27.789062 14.832031 27.648438 14.738281 C 27.648438 14.738281 28 13.980469 28 13.066406 C 28 11.230469 27.363281 9.667969 26 9.667969 C 26 9.667969 25.527344 8.53125 24 8.53125 Z M 8 8.535156 C 6.472656 8.535156 6 9.667969 6 9.667969 C 4.636719 9.667969 4 11.234375 4 13.070312 C 4 13.984375 4.351562 14.738281 4.351562 14.738281 C 4.210938 14.832031 3.976562 15.125 4.035156 15.644531 C 4.144531 16.617188 4.515625 16.859375 4.753906 16.882812 C 4.839844 17.785156 5.699219 18.945312 6 19.113281 L 6 19.871094 C 5.332031 22.136719 0 21.378906 0 26.667969 L 4.265625 26.667969 C 4.265625 21.855469 7.828125 20.144531 10 19.125 L 10 19.109375 C 10.199219 19 10.644531 18.449219 10.945312 17.824219 C 10.699219 17.460938 10.472656 17.074219 10.304688 16.671875 C 9.734375 16.171875 9.277344 15.375 9.128906 14.199219 C 9.058594 13.675781 9.113281 13.167969 9.273438 12.703125 C 9.15625 12.265625 9.066406 11.746094 9.066406 11.199219 C 9.066406 10.316406 9.191406 9.507812 9.417969 8.765625 C 8.996094 8.628906 8.539062 8.535156 8 8.535156 Z M 8 8.535156 "/>
</g>
</svg>
