<?xml version="1.0" encoding="UTF-8"?>
<svg xmlns="http://www.w3.org/2000/svg" xmlns:xlink="http://www.w3.org/1999/xlink" viewBox="0 0 18 18" width="18px" height="18px">
<g id="surface1869479">
<path style=" stroke:none;fill-rule:nonzero;fill:rgb(58.039218%,60.392159%,62.352943%);fill-opacity:1;" d="M 9 1.5 C 8.171875 1.5 7.5 2.171875 7.5 3 C 7.5 3.535156 7.785156 4.03125 8.25 4.296875 L 8.25 6 L 6 6 C 4.351562 6 3 7.351562 3 9 L 3 12 L 1.5 12 L 1.5 13.5 L 3 13.5 L 3 15 C 3 15.820312 3.679688 16.5 4.5 16.5 L 13.5 16.5 C 14.320312 16.5 15 15.820312 15 15 L 15 13.5 L 16.5 13.5 L 16.5 12 L 15 12 L 15 9 C 15 7.351562 13.648438 6 12 6 L 9.75 6 L 9.75 4.296875 C 10.214844 4.027344 10.5 3.535156 10.5 3 C 10.5 2.171875 9.828125 1.5 9 1.5 Z M 6 7.5 L 12 7.5 C 12.835938 7.5 13.5 8.164062 13.5 9 L 13.5 15 L 11.25 15 L 11.25 13.5 L 6.75 13.5 L 6.75 15 L 4.5 15 L 4.5 9 C 4.5 8.164062 5.164062 7.5 6 7.5 Z M 7.125 9.75 C 6.503906 9.75 6 10.253906 6 10.875 C 6 11.496094 6.503906 12 7.125 12 C 7.746094 12 8.25 11.496094 8.25 10.875 C 8.25 10.253906 7.746094 9.75 7.125 9.75 Z M 10.875 9.75 C 10.253906 9.75 9.75 10.253906 9.75 10.875 C 9.75 11.496094 10.253906 12 10.875 12 C 11.496094 12 12 11.496094 12 10.875 C 12 10.253906 11.496094 9.75 10.875 9.75 Z M 10.875 9.75 "/>
</g>
</svg>
