<?xml version="1.0" encoding="UTF-8"?>
<svg xmlns="http://www.w3.org/2000/svg" xmlns:xlink="http://www.w3.org/1999/xlink" viewBox="0 0 18 18" width="18px" height="18px">
<g id="surface10715933">
<path style=" stroke:none;fill-rule:nonzero;fill:rgb(58.039218%,60.392159%,62.352943%);fill-opacity:1;" d="M 14.378906 1.5 C 13.835938 1.5 13.292969 1.707031 12.878906 2.121094 L 12 3 L 15 6 L 15.878906 5.121094 C 16.707031 4.292969 16.707031 2.949219 15.878906 2.121094 C 15.464844 1.707031 14.921875 1.5 14.378906 1.5 Z M 10.875 4.125 L 3.75 11.25 C 3.75 11.25 4.503906 11.253906 4.875 11.625 C 5.246094 11.996094 5.238281 12.738281 5.238281 12.738281 C 5.238281 12.738281 6.003906 12.753906 6.375 13.125 C 6.746094 13.496094 6.75 14.25 6.75 14.25 L 13.875 7.125 Z M 2.753906 12.75 L 2.261719 15.378906 C 2.21875 15.59375 2.40625 15.78125 2.621094 15.738281 L 5.25 15.246094 Z M 2.753906 12.75 "/>
</g>
</svg>
