<?xml version="1.0" encoding="UTF-8"?>
<svg xmlns="http://www.w3.org/2000/svg" xmlns:xlink="http://www.w3.org/1999/xlink" viewBox="0 0 24 24" width="24px" height="24px">
<g id="surface1867105">
<path style=" stroke:none;fill-rule:nonzero;fill:rgb(0%,43.921569%,62.352943%);fill-opacity:1;" d="M 12 2 C 10.894531 2 10 2.894531 10 4 C 10 4.714844 10.382812 5.375 11 5.730469 L 11 8 L 8 8 C 5.800781 8 4 9.800781 4 12 L 4 16 L 2 16 L 2 18 L 4 18 L 4 20 C 4 21.09375 4.90625 22 6 22 L 18 22 C 19.09375 22 20 21.09375 20 20 L 20 18 L 22 18 L 22 16 L 20 16 L 20 12 C 20 9.800781 18.199219 8 16 8 L 13 8 L 13 5.726562 C 13.617188 5.371094 14 4.714844 14 4 C 14 2.894531 13.105469 2 12 2 Z M 8 10 L 16 10 C 17.117188 10 18 10.882812 18 12 L 18 20 L 15 20 L 15 18 L 9 18 L 9 20 L 6 20 L 6 12 C 6 10.882812 6.882812 10 8 10 Z M 9.5 13 C 8.671875 13 8 13.671875 8 14.5 C 8 15.328125 8.671875 16 9.5 16 C 10.328125 16 11 15.328125 11 14.5 C 11 13.671875 10.328125 13 9.5 13 Z M 14.5 13 C 13.671875 13 13 13.671875 13 14.5 C 13 15.328125 13.671875 16 14.5 16 C 15.328125 16 16 15.328125 16 14.5 C 16 13.671875 15.328125 13 14.5 13 Z M 14.5 13 "/>
</g>
</svg>
