<?xml version="1.0" encoding="UTF-8"?>
<svg xmlns="http://www.w3.org/2000/svg" xmlns:xlink="http://www.w3.org/1999/xlink" viewBox="0 0 24 24" width="24px" height="24px">
<g id="surface14887953">
<path style=" stroke:none;fill-rule:nonzero;fill:rgb(0%,43.921569%,62.352943%);fill-opacity:1;" d="M 7.875 0.414062 C 7.648438 0.414062 7.5 0.5625 7.5 0.789062 L 7.5 3 L 6.035156 3 C 5.660156 3 5.324219 3.1875 5.097656 3.488281 L 3.9375 5.25 C 3.375 5.363281 3 5.8125 3 6.375 C 3 6.863281 3.300781 7.277344 3.75 7.425781 L 3.75 21 L 2.625 21 C 2.398438 21 2.25 21.148438 2.25 21.375 C 2.25 21.601562 2.398438 21.75 2.625 21.75 L 22.875 21.75 C 23.101562 21.75 23.25 21.601562 23.25 21.375 C 23.25 21.148438 23.101562 21 22.875 21 L 21.75 21 L 21.75 12 L 22.125 12 C 22.351562 12 22.5 11.851562 22.5 11.625 C 22.5 11.398438 22.351562 11.25 22.125 11.25 L 18.75 11.25 L 18.75 10.5 C 18.75 10.085938 18.414062 9.75 18 9.75 L 16.5 9.75 L 16.5 7.425781 C 16.949219 7.277344 17.25 6.863281 17.25 6.375 C 17.25 5.8125 16.875 5.363281 16.347656 5.285156 L 15.1875 3.523438 C 14.960938 3.1875 14.589844 3 14.214844 3 L 9.75 3 L 9.75 2.664062 C 9.75 2.4375 9.601562 2.289062 9.375 2.289062 C 9.148438 2.289062 9 2.4375 9 2.664062 L 9 3 L 8.25 3 L 8.25 0.789062 C 8.25 0.5625 8.101562 0.414062 7.875 0.414062 Z M 6 3.75 L 7.5 3.75 L 7.5 4.535156 C 7.5 4.761719 7.648438 4.910156 7.875 4.910156 C 8.101562 4.910156 8.25 4.761719 8.25 4.535156 L 8.25 3.75 L 9 3.75 L 9 4.535156 C 9 4.761719 9.148438 4.910156 9.375 4.910156 C 9.601562 4.910156 9.75 4.761719 9.75 4.535156 L 9.75 3.75 L 14.214844 3.75 C 14.324219 3.75 14.4375 3.824219 14.511719 3.902344 L 15.410156 5.25 L 4.839844 5.25 L 5.699219 3.902344 C 5.773438 3.789062 5.886719 3.75 6 3.75 Z M 4.125 6 L 16.125 6 C 16.351562 6 16.5 6.148438 16.5 6.375 C 16.5 6.601562 16.351562 6.75 16.125 6.75 L 4.125 6.75 C 3.898438 6.75 3.75 6.601562 3.75 6.375 C 3.75 6.148438 3.898438 6 4.125 6 Z M 4.5 7.5 L 15.75 7.5 L 15.75 21 L 9.75 21 L 9.75 18.75 C 9.75 18.335938 9.414062 18 9 18 L 6.75 18 C 6.335938 18 6 18.335938 6 18.75 L 6 21 L 4.5 21 L 4.5 14.25 L 11.625 14.25 C 11.851562 14.25 12 14.101562 12 13.875 C 12 13.648438 11.851562 13.5 11.625 13.5 L 4.5 13.5 Z M 6.375 8.25 C 6.148438 8.25 6 8.398438 6 8.625 C 6 8.851562 6.148438 9 6.375 9 L 7.125 9 C 7.351562 9 7.5 8.851562 7.5 8.625 C 7.5 8.398438 7.351562 8.25 7.125 8.25 Z M 8.625 8.25 C 8.398438 8.25 8.25 8.398438 8.25 8.625 C 8.25 8.851562 8.398438 9 8.625 9 L 9.375 9 C 9.601562 9 9.75 8.851562 9.75 8.625 C 9.75 8.398438 9.601562 8.25 9.375 8.25 Z M 10.875 8.25 C 10.648438 8.25 10.5 8.398438 10.5 8.625 C 10.5 8.851562 10.648438 9 10.875 9 L 11.625 9 C 11.851562 9 12 8.851562 12 8.625 C 12 8.398438 11.851562 8.25 11.625 8.25 Z M 13.125 8.25 C 12.898438 8.25 12.75 8.398438 12.75 8.625 C 12.75 8.851562 12.898438 9 13.125 9 L 13.875 9 C 14.101562 9 14.25 8.851562 14.25 8.625 C 14.25 8.398438 14.101562 8.25 13.875 8.25 Z M 6.375 9.75 C 6.148438 9.75 6 9.898438 6 10.125 C 6 10.351562 6.148438 10.5 6.375 10.5 L 7.125 10.5 C 7.351562 10.5 7.5 10.351562 7.5 10.125 C 7.5 9.898438 7.351562 9.75 7.125 9.75 Z M 8.625 9.75 C 8.398438 9.75 8.25 9.898438 8.25 10.125 C 8.25 10.351562 8.398438 10.5 8.625 10.5 L 9.375 10.5 C 9.601562 10.5 9.75 10.351562 9.75 10.125 C 9.75 9.898438 9.601562 9.75 9.375 9.75 Z M 10.875 9.75 C 10.648438 9.75 10.5 9.898438 10.5 10.125 C 10.5 10.351562 10.648438 10.5 10.875 10.5 L 11.625 10.5 C 11.851562 10.5 12 10.351562 12 10.125 C 12 9.898438 11.851562 9.75 11.625 9.75 Z M 13.125 9.75 C 12.898438 9.75 12.75 9.898438 12.75 10.125 C 12.75 10.351562 12.898438 10.5 13.125 10.5 L 13.875 10.5 C 14.101562 10.5 14.25 10.351562 14.25 10.125 C 14.25 9.898438 14.101562 9.75 13.875 9.75 Z M 16.5 10.5 L 18 10.5 L 18 11.625 C 18 11.851562 18.148438 12 18.375 12 L 21 12 L 21 16.5 L 17.25 16.5 C 17.023438 16.5 16.875 16.648438 16.875 16.875 C 16.875 17.101562 17.023438 17.25 17.25 17.25 L 21 17.25 L 21 21 L 16.5 21 Z M 6.375 11.25 C 6.148438 11.25 6 11.398438 6 11.625 C 6 11.851562 6.148438 12 6.375 12 L 7.125 12 C 7.351562 12 7.5 11.851562 7.5 11.625 C 7.5 11.398438 7.351562 11.25 7.125 11.25 Z M 8.625 11.25 C 8.398438 11.25 8.25 11.398438 8.25 11.625 C 8.25 11.851562 8.398438 12 8.625 12 L 9.375 12 C 9.601562 12 9.75 11.851562 9.75 11.625 C 9.75 11.398438 9.601562 11.25 9.375 11.25 Z M 10.875 11.25 C 10.648438 11.25 10.5 11.398438 10.5 11.625 C 10.5 11.851562 10.648438 12 10.875 12 L 11.625 12 C 11.851562 12 12 11.851562 12 11.625 C 12 11.398438 11.851562 11.25 11.625 11.25 Z M 13.125 11.25 C 12.898438 11.25 12.75 11.398438 12.75 11.625 C 12.75 11.851562 12.898438 12 13.125 12 L 13.875 12 C 14.101562 12 14.25 11.851562 14.25 11.625 C 14.25 11.398438 14.101562 11.25 13.875 11.25 Z M 18 12.75 C 17.773438 12.75 17.625 12.898438 17.625 13.125 C 17.625 13.351562 17.773438 13.5 18 13.5 L 18.75 13.5 C 18.976562 13.5 19.125 13.351562 19.125 13.125 C 19.125 12.898438 18.976562 12.75 18.75 12.75 Z M 13.125 13.5 C 12.898438 13.5 12.75 13.648438 12.75 13.875 C 12.75 14.101562 12.898438 14.25 13.125 14.25 L 14.625 14.25 C 14.851562 14.25 15 14.101562 15 13.875 C 15 13.648438 14.851562 13.5 14.625 13.5 Z M 18 14.25 C 17.773438 14.25 17.625 14.398438 17.625 14.625 C 17.625 14.851562 17.773438 15 18 15 L 18.75 15 C 18.976562 15 19.125 14.851562 19.125 14.625 C 19.125 14.398438 18.976562 14.25 18.75 14.25 Z M 6.375 15.75 C 6.148438 15.75 6 15.898438 6 16.125 C 6 16.351562 6.148438 16.5 6.375 16.5 L 7.125 16.5 C 7.351562 16.5 7.5 16.351562 7.5 16.125 C 7.5 15.898438 7.351562 15.75 7.125 15.75 Z M 8.625 15.75 C 8.398438 15.75 8.25 15.898438 8.25 16.125 C 8.25 16.351562 8.398438 16.5 8.625 16.5 L 9.375 16.5 C 9.601562 16.5 9.75 16.351562 9.75 16.125 C 9.75 15.898438 9.601562 15.75 9.375 15.75 Z M 10.875 15.75 C 10.648438 15.75 10.5 15.898438 10.5 16.125 C 10.5 16.351562 10.648438 16.5 10.875 16.5 L 11.625 16.5 C 11.851562 16.5 12 16.351562 12 16.125 C 12 15.898438 11.851562 15.75 11.625 15.75 Z M 13.125 15.75 C 12.898438 15.75 12.75 15.898438 12.75 16.125 C 12.75 16.351562 12.898438 16.5 13.125 16.5 L 13.875 16.5 C 14.101562 16.5 14.25 16.351562 14.25 16.125 C 14.25 15.898438 14.101562 15.75 13.875 15.75 Z M 10.875 17.25 C 10.648438 17.25 10.5 17.398438 10.5 17.625 C 10.5 17.851562 10.648438 18 10.875 18 L 11.625 18 C 11.851562 18 12 17.851562 12 17.625 C 12 17.398438 11.851562 17.25 11.625 17.25 Z M 13.125 17.25 C 12.898438 17.25 12.75 17.398438 12.75 17.625 C 12.75 17.851562 12.898438 18 13.125 18 L 13.875 18 C 14.101562 18 14.25 17.851562 14.25 17.625 C 14.25 17.398438 14.101562 17.25 13.875 17.25 Z M 6.75 18.75 L 9 18.75 L 9 21 L 6.75 21 Z M 10.875 18.75 C 10.648438 18.75 10.5 18.898438 10.5 19.125 C 10.5 19.351562 10.648438 19.5 10.875 19.5 L 11.625 19.5 C 11.851562 19.5 12 19.351562 12 19.125 C 12 18.898438 11.851562 18.75 11.625 18.75 Z M 13.125 18.75 C 12.898438 18.75 12.75 18.898438 12.75 19.125 C 12.75 19.351562 12.898438 19.5 13.125 19.5 L 13.875 19.5 C 14.101562 19.5 14.25 19.351562 14.25 19.125 C 14.25 18.898438 14.101562 18.75 13.875 18.75 Z M 18.75 18.75 C 18.523438 18.75 18.375 18.898438 18.375 19.125 C 18.375 19.351562 18.523438 19.5 18.75 19.5 L 19.5 19.5 C 19.726562 19.5 19.875 19.351562 19.875 19.125 C 19.875 18.898438 19.726562 18.75 19.5 18.75 Z M 18.75 18.75 "/>
</g>
</svg>
