<?xml version="1.0" encoding="UTF-8"?>
<svg xmlns="http://www.w3.org/2000/svg" xmlns:xlink="http://www.w3.org/1999/xlink" viewBox="0 0 32 32" width="32px" height="32px">
<g id="surface2543503">
<path style=" stroke:none;fill-rule:nonzero;fill:rgb(100%,100%,100%);fill-opacity:1;" d="M 8.375 2.25 C 6.574219 2.25 5.125 3.699219 5.125 5.5 L 5.125 25.5 C 5.125 27.300781 6.574219 28.75 8.375 28.75 L 23.625 28.75 C 25.425781 28.75 26.875 27.300781 26.875 25.5 L 26.875 5.5 C 26.875 3.699219 25.425781 2.25 23.625 2.25 Z M 8.375 3.75 L 23.625 3.75 C 24.601562 3.75 25.375 4.523438 25.375 5.5 L 25.375 25.5 C 25.375 26.476562 24.601562 27.25 23.625 27.25 L 8.375 27.25 C 7.398438 27.25 6.625 26.476562 6.625 25.5 L 6.625 5.5 C 6.625 4.523438 7.398438 3.75 8.375 3.75 Z M 8.375 5.5 L 8.375 9.25 L 23.625 9.25 L 23.625 5.5 Z M 9.375 12.75 C 8.949219 12.75 8.625 13.074219 8.625 13.5 C 8.625 13.925781 8.949219 14.25 9.375 14.25 L 22.125 14.25 C 22.550781 14.25 22.875 13.925781 22.875 13.5 C 22.875 13.074219 22.550781 12.75 22.125 12.75 Z M 9.375 16.5 C 8.949219 16.5 8.625 16.824219 8.625 17.25 C 8.625 17.675781 8.949219 18 9.375 18 L 22.125 18 C 22.550781 18 22.875 17.675781 22.875 17.25 C 22.875 16.824219 22.550781 16.5 22.125 16.5 Z M 9.375 20.25 C 8.949219 20.25 8.625 20.574219 8.625 21 C 8.625 21.425781 8.949219 21.75 9.375 21.75 L 16 21.75 C 16.425781 21.75 16.75 21.425781 16.75 21 C 16.75 20.574219 16.425781 20.25 16 20.25 Z M 9.375 20.25 "/>
</g>
</svg>
